<svg width="284" height="102" viewBox="0 0 284 102" fill="none" xmlns="http://www.w3.org/2000/svg">
<path d="M88.7994 19.0208C88.2588 16.8932 87.0743 15.4126 85.8898 13.2936C83.469 8.96666 79.8234 5.11119 76.6206 4.72305C58.8296 2.561 65.1059 23.25 66.6067 34.0143C67.6072 41.0237 71.1953 47.7974 70.1114 54.7953C68.7141 63.8259 59.5973 67.8136 54.5889 58.5501C51.5844 53.0415 46.9527 46.2851 38.0659 46.2822C34.2248 46.2822 29.2164 49.692 26.5052 52.9006C26.5052 52.9006 24.0211 57.3742 22.9372 55.2093C21.7297 52.7914 28.8455 45.1322 36.0619 44.7814C46.3259 44.2812 55.023 42.7516 49.3333 33.7641C47.7663 31.2945 43.9224 27.1774 41.8207 27.8185C39.5666 28.5056 47.3293 33.8274 45.5755 36.8318C43.8246 39.5862 36.5622 38.5828 33.8079 38.3326C26.2982 37.8324 18.7885 39.8363 11.7762 44.3415C0.810699 51.3222 -2.95277 72.1923 15.5426 76.3267C19.1508 78.4427 19.168 79.3915 19.3492 81.3954C18.0352 83.8364 17.4717 85.9035 18.4119 87.9678C19.3492 90.0322 23.8573 91.5358 28.5523 90.7825C32.0915 90.2162 33.7964 86.8351 33.8079 86.8552C34.2449 87.5538 34.7538 88.3129 36.5737 89.0115C37.8272 89.4916 39.903 89.552 42.5998 88.816C42.5998 88.816 44.6699 91.2857 46.4639 91.5157C52.2313 92.2517 53.8011 91.7802 55.7763 91.0212C57.4036 90.4002 57.8435 89.345 57.8435 89.345C61.2878 90.7222 66.0805 90.61 67.1069 86.8408C67.7653 84.4315 64.8558 83.5862 63.6109 83.2269C64.3843 82.0855 63.0847 79.0034 61.8513 78.3306C79.5014 79.8314 80.0563 65.7838 79.3749 57.0493C78.5612 46.5956 68.3605 29.2589 69.8613 26.0015C72.6817 28.0571 73.9467 27.4361 73.2078 25.5098C72.5868 23.8854 72.1728 22.4594 72.8657 20.996C72.6242 22.5284 75.7207 26.105 79.3001 27.6546C81.9251 28.7931 84.9956 29.808 87.5717 27.7006C89.5957 26.0446 89.8401 23.1321 88.7994 19.0208Z" fill="#0FA245"/>
<path d="M89.5096 18.8311C87.1405 11.6003 81.6549 3.90375 73.4494 4.21426C69.1081 4.37814 65.727 6.75294 64.3383 10.8643C62.5673 16.1027 63.8984 22.4048 64.7983 27.6748C65.3101 30.6707 65.7471 33.6924 66.3451 36.6709C67.4923 42.3894 69.8182 47.7141 69.548 53.6568C69.3208 58.6163 65.4797 65.2031 59.675 62.8944C55.8942 61.3908 54.2785 56.2243 51.9813 53.1278C48.2839 48.1425 41.2831 44.1662 34.9867 46.5123C31.8155 47.6968 28.7823 49.6202 26.511 52.1561C25.8124 52.9381 25.3092 53.8006 24.671 54.6286C23.3513 56.3422 23.6848 53.5878 23.7625 53.3521C24.1793 52.0784 25.3495 50.868 26.2436 49.9423C30.1595 45.8884 34.9264 45.3249 40.2251 44.8563C43.2756 44.5831 46.3749 44.0656 49.1148 42.6453C54.796 39.707 50.1182 33.0915 47.1425 30.0094C45.8257 28.6466 43.7931 26.9359 41.7316 27.488C40.3602 27.856 40.6909 28.8335 41.309 29.7736C42.9564 32.2922 48.5686 37.1338 41.9128 38.212C37.7468 38.8876 33.3106 37.7232 29.09 37.9877C21.678 38.4563 13.3288 41.5844 8.00419 46.8717C0.0776201 54.7465 -0.681398 68.9867 9.85574 74.8346C12.9608 76.5568 17.9951 76.6919 18.5787 80.9528C18.7081 81.8872 17.581 83.9227 17.328 84.9175C17.1354 85.6794 17.2677 86.3665 17.3539 87.1227C17.5293 88.6896 18.8662 89.5751 20.1197 90.2479C24.5876 92.6399 31.275 91.1995 34.4318 87.2089C33.992 87.3009 33.5521 87.39 33.1122 87.4792C34.3973 89.4342 36.5335 89.6786 38.7646 89.7533C39.8571 89.7879 41.6253 89.3623 42.436 89.9632C43.4969 90.7539 44.5205 91.5273 46.027 91.8867C49.2327 92.6486 56.544 92.9763 58.5019 89.348C58.0937 89.4572 57.6854 89.5665 57.2743 89.6786C60.7272 90.9063 65.2928 91.165 67.4635 87.6488C68.5676 85.8663 67.5383 84.4604 66.0059 83.5633C64.8328 82.8733 64.5396 83.1206 64.5281 81.6859C64.5166 80.326 63.5276 78.8712 62.5127 78.0576C62.1993 78.2761 61.883 78.4946 61.5668 78.7131C66.5205 79.0466 72.2448 78.5032 75.8731 74.6794C79.3519 71.0165 80.1828 66.0196 80.2547 61.1407C80.3496 54.666 78.4118 48.7002 76.0974 42.7201C74.772 39.2959 73.3143 35.9205 72.0004 32.4877C71.4512 31.0502 70.4306 28.9312 70.399 27.1401C70.399 27.0481 70.4306 27.0682 70.4622 27.0768C71.618 27.4506 72.4029 27.9566 73.3057 27.4391C73.4552 27.3557 73.389 26.7922 73.6852 26.3897C73.9181 26.0705 74.0503 25.8233 73.9756 25.553C73.9267 25.3777 73.8232 24.978 73.7743 24.8228C73.7801 24.8515 73.8347 24.8486 73.8347 24.8486C76.4079 27.6058 81.3271 29.2475 84.2309 29.2964C90.1737 29.3912 90.4756 23.0575 89.5096 18.8311C89.4032 18.3682 87.9772 18.7305 88.0864 19.2135C88.486 20.9587 88.7563 22.5716 88.6269 24.3771C88.3164 28.6984 82.917 28.5862 79.8666 27.3241C77.5809 26.3782 73.6248 23.9516 73.5012 20.8235C73.4839 20.3578 72.4805 20.4987 72.3051 20.8235C72.009 21.3669 72.055 21.9966 72.2275 23.276C72.4115 24.6244 74.3292 28.2383 70.5226 25.7313C70.1632 25.4955 69.3064 25.645 69.1512 26.0993C68.0328 29.3913 71.319 34.7993 72.5035 37.706C74.8783 43.5308 77.4371 49.4219 78.4808 55.6636C79.2197 60.0625 79.0357 64.9444 77.7592 69.2167C75.6201 76.3699 69.0103 78.4112 62.1331 77.9483C61.9635 77.9368 60.7905 78.2818 61.1872 78.601C62.5127 79.6676 63.5103 81.6083 62.9037 83.3247C62.8663 83.4253 62.9497 83.5317 63.0445 83.5604C64.7322 84.0636 66.6441 84.653 66.3997 86.9358C65.9972 90.6763 60.7617 89.8482 58.4128 89.0116C58.0764 88.8937 57.3749 88.9886 57.1852 89.3422C54.9656 93.4507 46.0644 91.3749 43.4251 89.4083C43.1146 89.1783 42.9018 88.3934 42.5108 88.4854C39.561 89.1755 36.3035 89.3681 34.4721 86.585C34.2306 86.2199 33.3393 86.6109 33.1496 86.8524C30.0847 90.728 20.6286 92.2547 18.7742 86.7432C17.9634 84.3252 20.206 82.7324 20.0019 80.5732C19.8639 79.1156 19.2112 78.2559 18.1216 77.3187C15.3644 74.9467 11.4111 74.7857 8.44408 72.5001C5.82776 70.4818 4.28097 67.4773 3.60533 64.3004C2.2598 57.9637 5.17225 51.0118 9.63436 46.5784C13.3691 42.8667 18.9352 40.7392 23.9263 39.4827C28.9663 38.212 33.8252 38.9767 38.8911 39.0975C43.0139 39.1981 48.5456 37.844 45.4204 32.8528C44.7102 31.7229 43.7816 30.7195 42.9593 29.673C40.9151 27.0739 44.9546 29.7449 45.8171 30.5528C48.3961 32.9678 52.4787 38.3155 49.1666 41.6161C46.2196 44.5486 39.9376 44.057 36.1655 44.4106C32.8448 44.7211 29.9697 46.0264 27.2528 47.9211C25.1396 49.396 22.9948 51.558 22.1783 54.0565C21.7097 55.4883 22.8223 56.4112 24.1448 56.0575C25.2747 55.7556 26.0711 54.5711 26.6893 53.6798C29.0928 50.2039 33.4543 46.9464 37.7842 46.6647C45.3974 46.1702 50.607 52.8288 53.8788 58.74C55.7419 62.1124 59.3069 65.2635 63.4499 63.964C68.1995 62.4718 70.4133 58.1908 70.9654 53.4671C71.7761 46.5295 68.1823 39.4051 67.1386 32.6343C66.4141 27.9307 65.4079 23.2875 65.0858 18.5292C64.7926 14.1908 65.0743 8.63899 69.1397 6.03705C77.7735 0.511165 85.8438 12.368 88.0864 19.2135C88.2417 19.685 89.6562 19.2796 89.5096 18.8311Z" fill="#231F20"/>
<path d="M81.2667 9.59339C81.2667 12.2615 79.7516 14.4264 77.8828 14.4264C76.0169 14.4264 74.5017 12.2615 74.5017 9.59339C74.5017 6.92533 76.0169 4.7604 77.8828 4.7604C79.7516 4.7604 81.2667 6.92533 81.2667 9.59339Z" fill="white"/>
<path d="M80.9189 9.52995C80.8442 11.2377 80.3496 12.9053 78.8517 13.8886C76.2124 15.6193 74.9244 11.3815 74.8496 9.65645C74.7778 7.99753 75.5109 6.21786 76.9168 5.29784C79.5561 3.56992 80.8442 7.8049 80.9189 9.52995C80.9304 9.81745 81.6319 9.98708 81.6147 9.65645C81.5284 7.67552 80.5969 4.76595 78.202 4.55607C75.416 4.30882 74.2545 7.18389 74.151 9.52995C74.0676 11.5022 75.2838 14.4291 77.5666 14.6303C80.3525 14.8776 81.514 12.0025 81.6147 9.65645C81.6291 9.37182 80.9333 9.19069 80.9189 9.52995Z" fill="#231F20"/>
<path d="M77.233 8.54685C77.3365 8.78549 77.3998 9.09312 77.3998 9.43238C77.3998 10.1741 77.1037 10.7779 76.7356 10.7779C76.3676 10.7779 76.0715 10.1741 76.0715 9.43238C76.0715 9.07874 76.1405 8.75961 76.2498 8.5181C75.4045 8.77686 74.772 9.72276 74.772 10.8613C74.772 12.1982 75.6374 13.2792 76.704 13.2792C77.7735 13.2792 78.6389 12.1982 78.6389 10.8613C78.6389 9.75726 78.0438 8.83724 77.233 8.54685Z" fill="#231F20"/>
<path d="M88.1554 9.51289C88.1554 12.181 86.6402 14.3459 84.7714 14.3459C82.9026 14.3459 81.3875 12.181 81.3875 9.51289C81.3875 6.84483 82.9026 4.6799 84.7714 4.6799C86.6402 4.6799 88.1554 6.84483 88.1554 9.51289Z" fill="white"/>
<path d="M87.8018 9.42937C87.7386 10.9187 87.385 12.2153 86.3729 13.3567C83.6934 16.3755 81.8217 11.4908 81.7412 9.599C81.6779 8.16433 82.2271 6.72967 83.1672 5.66877C85.8497 2.64995 87.7185 7.53757 87.8018 9.42937C87.8133 9.68525 88.5149 9.78875 88.5062 9.599C88.4229 7.6382 87.5201 4.75163 85.1395 4.54175C82.3507 4.29449 81.1403 7.01718 81.0339 9.42937C80.9505 11.3815 82.1293 14.2825 84.4035 14.4837C87.1923 14.731 88.4027 12.0112 88.5062 9.599C88.5177 9.34599 87.8105 9.22523 87.8018 9.42937Z" fill="#231F20"/>
<path d="M84.1188 8.46632C84.2223 8.70495 84.2885 9.01258 84.2885 9.35184C84.2885 10.0936 83.9895 10.6974 83.6243 10.6974C83.2563 10.6974 82.9573 10.0936 82.9573 9.35184C82.9573 8.99821 83.0263 8.67908 83.1384 8.44044C82.2903 8.69633 81.6606 9.6451 81.6606 10.7836C81.6606 12.1177 82.526 13.1987 83.5927 13.1987C84.6593 13.1987 85.5247 12.1177 85.5247 10.7836C85.5247 9.67673 84.9296 8.7567 84.1188 8.46632Z" fill="#231F20"/>
<path d="M79.8867 3.16467C77.2157 1.0515 73.9209 3.31705 72.7335 5.96787C72.5035 6.47963 73.7398 5.98799 73.9094 5.61136C74.8409 3.52981 76.9484 2.50053 78.8689 4.01857C79.2053 4.28595 80.3007 3.48668 79.8867 3.16467Z" fill="#231F20"/>
<path d="M82.6757 0.913483C85.0591 -1.40382 88.0032 1.08024 89.0612 3.98981C89.2654 4.55332 88.1613 4.01281 88.0118 3.60167C87.1809 1.31599 85.2978 0.188966 83.5842 1.85363C83.2852 2.14401 82.3106 1.26999 82.6757 0.913483Z" fill="#231F20"/>
<path d="M51.7943 77.4826C54.0656 79.2536 54.4106 82.0223 53.5165 84.6357C53.4762 84.7508 53.5711 84.8255 53.6573 84.8715C55.2818 85.757 58.407 87.6862 56.8458 89.9173C56.4864 90.429 57.9124 90.2824 58.1626 89.923C59.741 87.6661 57.3777 85.7887 55.5664 84.6271C54.8562 84.1729 55.4341 81.2374 55.2846 80.3059C55.0604 78.9172 54.195 77.7787 53.1197 76.9363C52.7373 76.6402 51.432 77.1979 51.7943 77.4826Z" fill="#231F20"/>
<path d="M29.0986 76.4013C31.8702 78.2528 31.5424 79.9894 30.2142 82.3555C30.1653 82.4418 30.1107 82.5482 30.2055 82.6287C31.7609 83.9081 34.3083 85.1645 32.8046 87.9073C32.5803 88.3156 34.0984 88.1603 34.2651 87.7032C34.6303 86.6998 34.4233 85.9638 34.0294 84.9776C33.6757 84.0806 31.5856 82.4993 31.9536 81.654C33.0231 79.2131 32.1318 77.6951 30.0445 75.855C29.6938 75.5445 29.0986 76.4013 29.0986 76.4013Z" fill="#231F20"/>
<path d="M43.2238 89.4197C42.5108 88.3042 42.8213 87.0794 43.2238 85.8834C43.6378 84.6557 41.2486 84.0893 41.5649 83.1808C42.2319 81.2603 40.1216 78.7906 38.4885 78.0977C38.1752 77.9654 37.2925 78.4542 37.3759 78.4887C39.2821 79.2966 40.9784 81.7519 40.2481 83.8565C40.228 83.891 40.2337 83.9197 40.2711 83.9398C41.6109 84.742 42.1658 85.5901 41.7604 87.1197C41.5189 88.0397 41.5304 88.931 42.045 89.7388C42.2175 90.0091 43.2985 89.5376 43.2238 89.4197Z" fill="#231F20"/>
<path d="M71.204 21.8327C71.1551 21.4043 71.2126 20.9558 71.3535 20.559C71.9027 18.995 73.7571 19.9294 74.7231 20.3865C74.9387 20.4843 75.5195 20.1565 75.4821 20.1393C74.1452 19.5096 72.3253 18.8685 71.0373 19.9696C70.514 20.4181 70.3242 21.2979 70.4047 22.0195C70.422 22.1834 71.227 22.0339 71.204 21.8327Z" fill="#231F20"/>
<path d="M71.204 21.8327C71.1551 21.4043 71.2126 20.9558 71.3535 20.5591C71.9027 18.995 73.7571 19.9294 74.7231 20.3866C74.9387 20.4843 75.5195 20.1566 75.4821 20.1393C74.1452 19.5097 72.3253 18.8685 71.0373 19.9697C70.514 20.4182 70.3242 21.298 70.4047 22.0196C70.422 22.1835 71.227 22.034 71.204 21.8327Z" stroke="#231F20" stroke-width="0.467"/>
<path d="M84.2769 98.6631C84.2913 98.6602 84.3085 98.6545 84.3258 98.6516C84.32 98.6516 84.32 98.6487 84.3171 98.6458C84.3028 98.6516 84.2884 98.6573 84.2769 98.6631ZM77.8511 99.3014C77.6786 99.195 77.762 99.2467 77.8511 99.3014V99.3014ZM68.5042 59.9215C68.3806 60.1199 68.5474 59.5995 68.5042 59.9215V59.9215ZM77.8511 99.3014C77.9374 99.356 78.0236 99.4135 77.8511 99.3014V99.3014ZM68.5905 59.7864C68.5531 59.8439 68.5301 59.8813 68.5042 59.9215V59.9301C68.5301 59.887 68.5589 59.8468 68.5962 59.7864H68.5905ZM99.831 52.7051C99.8396 52.6907 99.8483 52.6735 99.8598 52.662C99.9316 52.6648 99.9863 52.662 100.041 52.6562L99.831 52.7051ZM103.801 51.7477C103.824 51.7621 103.836 51.7764 103.842 51.7937L103.367 51.9029C103.364 51.8799 103.359 51.8569 103.344 51.8339C103.258 51.8857 103.212 51.9202 103.16 51.9489L102.927 52.0007C103.017 51.8138 103.612 51.6356 103.801 51.7477ZM116.84 90.1126C116.573 89.0172 116.271 87.1944 115.917 86.1335L115.842 85.8115C116.032 85.4493 116.138 86.3405 116.279 86.0502C116.032 86.1249 116.115 85.6678 115.868 84.9691L115.897 84.9318C115.773 84.6356 115.897 84.4257 115.745 84.1124L115.681 84.1411C115.437 83.8277 115.828 83.2872 115.466 83.1751L115.584 82.8617C115.218 82.5828 115.549 82.2924 115.213 81.9216L115.276 81.9618C115.27 81.358 114.692 80.8377 114.871 80.5645C114.75 80.1821 114.606 79.7624 114.431 79.5812L114.393 79.4174C114.459 79.403 114.537 79.426 114.592 79.4576C114.212 78.1638 113.896 76.7407 113.496 75.4584L111.211 65.3698C111.035 64.1824 110.788 63.0208 110.454 62.0404L110.138 60.646C110.187 60.623 110.224 60.5972 110.196 60.5167C110.112 60.3269 110.043 60.1256 109.974 59.9244L107.921 50.8679L104.492 51.6471L104.604 51.5694C104.408 51.6672 104.141 51.6269 104.193 51.4688L103.807 51.6643L103.79 51.4861C103.117 51.7017 102.6 51.6356 101.921 51.9346L102.229 52.0524C102.022 52.1042 101.829 52.2135 101.634 52.2968L101.191 52.3946C101.136 52.3946 101.082 52.386 101.021 52.3716C101.197 52.2652 101.041 52.2048 101.013 52.1071C100.926 52.1617 100.834 52.2537 100.714 52.2537L100.834 51.9087C100.745 52.3486 99.739 52.3112 99.5636 52.4176L99.6125 52.3486C98.9656 52.363 99.762 52.4923 99.3423 52.593C98.9771 52.6217 99.1353 52.2968 98.7787 52.2451C98.1549 52.3975 97.1313 52.869 96.3752 52.7971C95.8289 52.9753 95.2367 53.2226 94.7651 53.4756C94.2649 53.5877 94.7191 53.1565 94.2476 53.4066C94.2764 53.2887 94.1815 53.1939 94.1154 53.1018C94.0809 53.2341 93.1724 53.2974 93.6352 53.4756C92.8935 53.582 92.0683 53.743 91.3151 53.973C91.5681 53.8954 91.5911 53.6884 91.3553 53.6424C91.0419 53.9097 90.4468 54.157 89.7913 54.2519C89.8488 54.4474 90.0558 54.3956 90.0328 54.6055C89.9437 54.6573 89.8085 54.778 89.6446 54.801C89.5066 54.617 89.4635 54.3008 88.8856 54.4244C88.9661 54.0679 89.8746 54.2404 89.544 53.9845C89.7395 53.6711 90.7774 53.4181 91.0477 53.5245C91.4962 53.1335 90.6365 53.582 90.671 53.2916C90.2139 53.421 90.0299 53.6079 89.3198 53.812C89.3428 53.9529 89.59 53.9155 89.2853 54.1024C88.7102 54.5308 88.44 54.0822 88.279 54.1052L88.5751 53.9615C88.1324 53.9615 88.026 54.1829 87.5746 54.2691C87.3705 53.9327 88.279 54.065 88.394 53.8034L88.0116 53.6165C87.3158 53.7372 87.8937 53.9586 87.1577 54.0247L87.2152 53.8724L86.7897 54.0564C86.8127 54.1944 86.9565 54.3784 87.3302 54.2634C87.1606 54.6716 86.991 54.3928 86.4044 54.5998C86.2549 54.8441 86.6546 54.5193 86.7121 54.7176C86.8127 54.8844 86.3987 54.985 86.1026 55.0885C85.608 55.2007 85.8007 54.9304 85.5678 54.8413C85.6569 54.7866 86.0336 54.6716 86.0192 54.7981C86.5827 54.4503 85.6569 54.4416 86.0479 54.203C85.5505 54.1915 85.6224 54.4244 85.3867 54.548C85.5419 54.5394 85.3694 54.7636 85.493 54.8096C84.8001 55.5399 84.8806 54.5336 84.1216 54.8068C84.366 55.1144 83.1872 55.5284 83.8456 55.7785C83.6702 55.8849 83.4517 56.02 83.2476 56.0258C83.4029 55.7412 82.8595 55.9223 83.1786 55.6118L82.894 55.675L83.2562 55.2955C82.9055 55.2064 82.3448 55.1633 82.1522 55.0885C81.7641 55.2869 82.3305 55.2869 81.8676 55.4537C82.0085 55.2927 81.6893 55.2582 81.4794 55.307C81.9222 55.3042 81.5628 55.6405 81.3069 55.7613C80.8901 55.859 80.5048 55.7124 80.5537 55.6434L80.9131 55.3502C80.6428 55.5917 80.7578 55.2898 80.4588 55.4335C80.3984 55.5859 80.2518 55.8303 80.1857 56.0229C79.9327 56.1408 79.7055 56.0114 79.6193 56.0603L80.0103 55.8245C79.464 56.0028 79.8061 55.4882 79.257 55.7095L79.1506 55.928C79.0328 55.9252 78.9551 55.8533 79.0471 55.7613C78.9925 55.9137 78.6619 55.9597 78.5296 56.0373L78.4635 55.9252C78.245 56.0603 78.0064 56.3967 77.6642 56.2242C77.9575 56.4657 77.9517 56.1609 78.3916 56.2012C78.6964 56.3593 78.0351 56.4944 77.9489 56.5462C77.9029 56.2299 77.3278 56.6583 77.0375 56.7187C76.8477 56.6468 76.6867 56.6296 76.5717 56.5836L76.5027 56.8164C76.3072 56.4398 75.9507 57.0407 75.597 56.9889C75.735 56.8251 75.6747 56.6727 75.4303 56.6669C75.8098 56.8969 75.0134 57.1557 75.1514 57.334C74.5448 57.3627 75.2003 56.9228 74.9818 56.7532C74.7431 57.0493 74.2946 56.7503 74.171 57.0924C74.6166 57.0896 74.148 57.2995 74.0934 57.449C73.5529 57.5467 74.148 57.2995 73.7484 57.2765C73.5356 57.3685 73.297 57.6646 73.6621 57.6732C73.3372 57.679 73.0526 58.0441 72.6645 57.9377C72.4776 57.7853 73.2941 57.7048 73.0612 57.6186C72.3195 57.7652 72.7967 58.162 72.124 58.3805C72.4431 58.415 72.2361 58.8117 71.9313 58.9986C71.1522 59.0906 72.2361 58.8117 71.8911 58.6392L71.5978 58.7427C71.1004 58.5099 72.3712 58.001 71.9083 57.8256L71.6036 58.0096C71.6553 57.9003 71.7243 57.7106 71.5662 57.6502C71.5346 57.8975 70.8129 57.8802 70.7669 57.9463C70.7411 58.1562 71.0199 57.8313 70.9998 57.9952C70.6634 58.1275 70.58 58.4811 70.0165 58.4811C70.2782 58.2827 69.844 58.2454 69.9389 58.1073C69.8009 58.0987 69.7923 58.1591 69.7693 58.2195L69.706 58.3057L69.6313 58.3287L69.5795 58.3345H69.5163L69.5134 58.3316V58.3345C69.6341 58.139 68.9528 59.2229 68.5991 59.7835V59.7864H68.5962C68.5617 59.841 68.5301 59.887 68.5042 59.9301L68.5272 60.0394L68.5876 60.3125L68.7141 60.8732L69.0218 62.0088C69.2546 62.7592 69.545 63.4694 69.9159 64.0156C69.7722 64.283 69.8584 64.7344 69.8814 65.4647C69.8757 65.1426 70.0798 65.4043 70.143 65.5739L69.9935 65.9592C69.9562 66.3991 70.2897 66.8821 70.5024 67.2328C70.4737 67.3076 70.4162 67.3421 70.3615 67.3766C70.2954 67.7705 70.5714 67.7216 70.6548 67.851L70.5484 68.1241L70.7152 68.1413C70.8848 68.4864 70.9567 68.9751 70.695 68.9866C70.7756 69.1189 70.8532 69.2482 70.8848 69.0499C70.8216 69.4466 71.0487 70.4385 71.2787 71.0739C71.2729 70.7519 71.3563 70.7577 71.5087 70.6973C71.7991 70.7318 71.4914 70.8554 71.7071 71.0825C71.6093 71.1113 71.5748 71.4304 71.4282 71.1314C71.2844 72.0802 71.8365 73.236 72.0147 74.3457C72.1067 74.5585 72.1355 74.4809 72.2303 74.5729C72.1153 75.3233 72.5926 76.1082 72.6443 76.8787C72.7191 76.6889 73.0871 76.8499 73.1849 77.2668C73.5097 77.6665 72.9204 77.5169 72.8801 77.954C73.0296 78.1351 73.1417 78.5117 73.1647 78.6756L73.1245 78.6699C73.2999 78.8941 73.4551 79.2736 73.4206 79.5928L73.3947 79.5496C73.4292 79.7969 73.3516 80.1103 73.4292 80.3575C73.6621 80.4265 73.6765 81.0734 73.8921 81.1827C73.8778 81.2172 73.8519 81.174 73.8231 81.2517L74.0014 81.2344L74.0158 81.7606C73.9238 81.6657 73.8404 81.6571 73.7599 81.5277C73.7599 82.0941 73.964 81.6743 74.125 81.9331C74.3349 82.2809 74.1566 82.3011 74.125 82.4994C74.0014 82.3643 74.102 82.2119 74.0503 82.1257C73.8605 81.9446 74.0445 82.3672 73.9468 82.3959C73.9583 82.4793 74.1796 82.4649 74.1998 82.7496C74.2343 82.994 74.4154 83.5402 74.2084 83.5172C74.355 83.6983 74.3924 83.9427 74.5103 84.075C74.5045 83.8737 74.4729 83.5086 74.585 83.4367C74.6483 83.6092 74.7805 83.9456 74.7086 84.0204L74.6281 83.891C74.7086 84.0204 74.7661 84.5494 74.884 84.2417L74.7201 84.6644C74.8955 84.7679 74.9703 85.1388 75.0738 85.432C74.8812 85.4924 74.608 85.2969 74.6914 85.8719L74.999 86.3118C75.0738 86.5619 75.045 86.6395 74.9214 86.6252C75.0105 87.5222 75.6632 87.3986 75.643 88.1231C75.3469 87.8845 75.3814 88.1317 75.3872 88.4566C75.4303 88.4595 75.5137 88.471 75.551 88.5946C75.6344 88.4853 75.3469 88.4508 75.4504 88.1806C75.5769 88.0742 75.6085 88.4365 75.689 88.5716C75.3239 89.2932 76.0254 90.6301 76.0139 91.6738C76.2784 91.5415 76.1951 92.0993 76.3446 92.2747C76.0398 92.2804 76.5257 92.8209 76.4078 93.1315L76.6608 92.9187C76.6321 93.5598 77.3163 93.8042 77.0576 94.2585C77.049 94.6179 76.8218 94.1895 76.7442 94.0572C76.5343 94.5977 77.2818 95.2533 77.0202 95.7046C77.1438 95.719 77.302 95.5379 77.5003 95.9231C77.4515 96.2797 77.4457 96.9639 77.3796 96.9151C77.4975 97.1738 77.6067 97.2256 77.5693 97.5447C77.4888 97.5332 77.4486 97.4096 77.3968 97.3233C77.4285 97.8092 77.6383 98.1571 77.8367 98.5452C77.7562 98.6947 77.7907 98.9736 77.8454 99.2784L77.8482 99.2927V99.2985L77.8511 99.3014C77.992 99.3905 78.3082 99.5889 78.9609 100H78.9666L78.9954 99.9943L79.0558 99.9827L79.1736 99.9626L79.4123 99.9195L79.8694 99.8764C80.1109 99.5371 80.7664 99.7872 80.729 99.4279C80.7233 99.4681 80.8038 99.4969 80.8412 99.5112C81.0194 99.3646 81.1316 99.103 81.3817 99.0282L81.3529 99.2784C81.3558 99.5802 82.0918 99.1691 82.1953 99.2956C81.9308 99.149 82.4857 99.2324 82.4656 99.0541L82.7502 98.9132C83.216 98.7436 82.7818 98.7867 83.3655 98.62C83.699 98.5308 83.5409 98.8615 83.4172 98.8586C83.7277 98.9132 83.998 98.781 84.2769 98.6631C84.1705 98.689 84.1274 98.6803 84.2194 98.6085C84.2309 98.6372 84.274 98.643 84.3171 98.6458C84.4149 98.6056 84.5184 98.5653 84.6248 98.5423C84.6219 98.5481 84.6248 98.5481 84.6248 98.5538C84.5126 98.5941 84.4063 98.6286 84.3258 98.6516C84.4063 98.6516 84.5155 98.6315 84.6305 98.6085C84.6449 98.6171 84.6765 98.6085 84.7168 98.5883C84.8145 98.5711 84.9123 98.5596 84.9784 98.5797L84.941 98.7781C85.148 98.7407 85.6713 98.4043 85.6368 98.3325C86.4821 98.3008 87.7931 97.8696 88.3135 97.6453C88.2157 97.7114 88.2157 97.7718 88.3077 97.6884C88.5809 97.5878 88.8597 97.3636 88.9144 97.4728C89.1674 97.3377 89.1961 97.5418 89.6159 97.4642C89.6331 97.4987 89.6389 97.2687 89.5239 97.3204C90.2944 97.4297 91.0994 96.7943 91.9878 96.7627C91.9246 96.7943 91.8498 96.9151 91.7981 96.9869C92.4248 96.7512 93.158 96.9869 93.5576 96.9237C93.5145 97.0214 93.5519 97.0933 93.4081 97.1738C93.8566 97.0674 94.3684 96.9035 94.5409 96.6879C94.216 96.6735 94.5438 96.7914 94.3339 96.8288C93.9745 96.7454 94.5179 96.4464 94.8226 96.4234L94.8399 96.4608C95.2913 96.3544 95.2884 96.2509 95.7369 96.1474C96.0302 96.1848 95.5127 96.2509 95.6478 96.3372C95.8174 96.5988 96.7173 96.2854 96.8151 96.2969C96.9099 96.2107 97.0508 96.1273 97.0163 96.0554C97.3498 95.8973 97.2147 96.1848 97.4562 96.1187L98.2555 95.4143L98.3072 95.3999C98.3619 95.4775 98.6379 95.5609 98.3964 95.7075C98.8535 95.581 99.1525 95.3625 99.417 95.1498L101.05 94.7789C100.909 94.8881 101.283 94.9974 101.085 95.1383C101.453 94.9514 102.407 94.8479 103.005 94.7645C102.554 94.5402 103.6 94.4396 103.652 94.1895L104.072 94.0946C104.21 94.1406 104.149 94.3016 104.333 94.3045C105.021 94.0285 105.716 93.9566 106.357 93.7783L106.346 93.8416C106.907 93.6231 107.852 93.4908 108.396 93.1142L108.442 93.1027C108.442 93.1602 108.485 93.2062 108.353 93.281C108.715 93.2551 108.692 93.1401 108.724 93.0395L109.118 92.9503L109.028 93.0682C109.454 92.8238 109.946 92.9963 110.42 92.6542C110.457 92.7289 110.348 92.7807 110.282 92.8411C110.661 92.6973 111.09 92.6082 111.432 92.4242L111.694 92.3667C111.696 92.4271 111.645 92.4961 111.521 92.5737C111.892 92.5766 111.967 92.3696 112.165 92.2603L112.453 92.1942C112.585 92.1856 112.821 92.2488 112.746 92.2718C112.872 92.1482 113.217 92.0447 113.499 91.9584L113.867 91.8722C113.962 91.9239 114.126 91.9239 114.373 91.9584L115.121 91.7888C114.934 92.0878 114.968 92.0303 115.121 91.7888L116.167 91.553C116.46 91.3374 116.782 91.7485 117.056 91.0125L116.84 90.1126ZM94.1211 52.8603C94.2045 52.8603 94.2879 52.8316 94.3684 52.7223C94.239 52.7712 94.1671 52.8143 94.1211 52.8603ZM91.7981 96.9869C91.7722 96.9984 91.7492 97.0071 91.7262 97.0157C91.7319 97.0646 91.7607 97.0387 91.7981 96.9869ZM94.0493 53.03C94.0636 53.0357 94.0694 53.0415 94.078 53.0472C94.0435 52.9868 94.0493 52.9265 94.1211 52.8603C93.9457 52.8575 93.7646 52.731 93.5835 52.892C93.4627 52.8517 93.6899 52.6763 93.4426 52.7108C93.2586 52.9006 93.6439 53.0472 94.0493 53.03ZM68.5042 59.9301C68.3461 60.1803 68.3806 60.1285 68.5042 59.9301V59.9301ZM85.3867 54.548C85.3464 54.5538 85.2889 54.5681 85.194 54.6113C85.2803 54.5998 85.3378 54.5768 85.3867 54.548ZM68.5991 59.7835H68.5962V59.7864C68.5962 59.7864 68.5962 59.7835 68.5991 59.7835Z" fill="#ED1C24"/>
<path d="M91.4128 81.9243C91.6313 78.7703 93.1925 75.2972 96.0992 71.5108L98.4453 79.7335L91.4128 81.9243ZM110.477 82.6229C110.239 80.9295 110.161 77.7238 108.405 76.3179C107.323 75.4553 105.624 76.016 105.624 76.016L103.212 66.2954C103.212 66.2954 103.787 66.0999 103.787 65.5536C103.787 64.855 103.491 64.8061 103.1 64.4956C101.614 63.3111 98.3446 60.8701 96.8266 59.8351C96.6196 59.6913 96.1998 59.4585 95.8836 59.4843C95.4552 59.516 95.1907 59.7086 94.8802 60.0737C87.2181 69.4263 84.0843 83.7844 84.0843 83.7844C84.0469 83.9397 82.8883 84.3652 82.3851 85.475C81.9366 86.4755 81.8015 88.028 82.411 89.7071C83.2908 92.125 84.8893 94.6321 88.6096 93.0623C90.9931 92.0589 90.7458 90.3022 91.0017 88.488C91.7233 88.1977 99.5119 86.3116 100.685 86.0529C101.214 85.9379 101.786 85.82 102.381 85.7021C103.264 87.6226 105.276 88.7152 107.283 88.2235C109.612 87.6456 110.84 85.1788 110.477 82.6229Z" fill="#231F20"/>
<path d="M89.6534 81.7491C89.869 78.5606 91.4101 74.294 94.3139 70.4673L96.6858 79.5353L89.6534 81.7491ZM108.721 82.465C108.479 80.7486 108.402 77.5112 106.642 76.091C105.561 75.2169 103.862 75.7833 103.862 75.7833L101.447 65.9563C101.447 65.9563 102.025 65.7608 102.025 65.2088C102.025 64.5015 101.726 64.4527 101.335 64.1393C99.8484 62.9404 96.5766 60.4707 95.0614 59.4242C94.8515 59.2804 94.4663 59.0677 94.1184 59.0705C93.6871 59.0705 93.4226 59.2977 93.1121 59.6657C85.4558 69.116 82.3249 83.6265 82.3249 83.6265C82.2875 83.7846 81.1288 84.213 80.6286 85.3372C80.1772 86.3463 80.0449 87.9161 80.6544 89.6153C81.5342 92.0591 83.1356 94.592 86.856 93.005C89.2394 91.993 88.9893 90.2162 89.2452 88.3848C89.9668 88.0886 97.7525 86.1882 98.9284 85.9266C99.4574 85.8058 100.03 85.6908 100.625 85.5729C101.507 87.5107 103.52 88.6205 105.524 88.1202C107.855 87.5395 109.08 85.0468 108.721 82.465Z" fill="white"/>
<path d="M89.6534 81.749C89.869 78.5606 91.4101 74.294 94.3139 70.4672L96.6858 79.5352L89.6534 81.749ZM108.721 82.4649C108.479 80.7485 108.402 77.5112 106.642 76.0909C105.561 75.2169 103.862 75.7833 103.862 75.7833L101.447 65.9563C101.447 65.9563 102.025 65.7608 102.025 65.2087C102.025 64.5015 101.726 64.4526 101.335 64.1392C99.8484 62.9403 96.5766 60.4706 95.0614 59.4241C94.8515 59.2804 94.4663 59.0676 94.1184 59.0705C93.6871 59.0705 93.4226 59.2976 93.1121 59.6656C85.4558 69.116 82.3249 83.6264 82.3249 83.6264C82.2875 83.7846 81.1288 84.213 80.6286 85.3371C80.1772 86.3463 80.0449 87.9161 80.6544 89.6152C81.5342 92.059 83.1356 94.592 86.856 93.0049C89.2394 91.9929 88.9893 90.2161 89.2452 88.3847C89.9668 88.0886 97.7525 86.1881 98.9284 85.9265C99.4574 85.8058 100.03 85.6907 100.625 85.5729C101.507 87.5107 103.52 88.6204 105.524 88.1202C107.855 87.5394 109.08 85.0467 108.721 82.4649Z" stroke="#231F20" stroke-width="0.513" stroke-linecap="round" stroke-linejoin="round"/>
<path d="M78.2479 61.6293C78.2479 62.6125 77.4544 63.4089 76.4769 63.4089C75.4993 63.4089 74.7058 62.6125 74.7058 61.6293C74.7058 60.646 75.4993 59.8496 76.4769 59.8496C77.4544 59.8496 78.2479 60.646 78.2479 61.6293Z" fill="white"/>
<path d="M78.2479 61.6293C78.2479 62.6126 77.4544 63.409 76.4769 63.409C75.4993 63.409 74.7058 62.6126 74.7058 61.6293C74.7058 60.646 75.4993 59.8496 76.4769 59.8496C77.4544 59.8496 78.2479 60.646 78.2479 61.6293Z" stroke="#231F20" stroke-width="0.391"/>
<path d="M104.771 56.5117C104.771 57.4949 103.977 58.2913 103 58.2913C102.022 58.2913 101.229 57.4949 101.229 56.5117C101.229 55.5284 102.022 54.732 103 54.732C103.977 54.732 104.771 55.5284 104.771 56.5117Z" fill="white"/>
<path d="M104.771 56.5117C104.771 57.495 103.977 58.2914 103 58.2914C102.022 58.2914 101.229 57.495 101.229 56.5117C101.229 55.5284 102.022 54.732 103 54.732C103.977 54.732 104.771 55.5284 104.771 56.5117Z" stroke="#231F20" stroke-width="0.391"/>
<path d="M104.06 56.8739C98.152 48.5419 93.0976 40.4342 85.5937 32.5767C84.9381 31.8895 83.8284 30.5124 82.4771 29.1151C82.4742 29.1151 82.4742 29.1122 82.4742 29.1122C82.1637 29.0576 81.8388 28.9886 81.5139 28.911C81.4622 28.8995 81.4133 28.888 81.3644 28.8736C80.706 28.7126 80.0247 28.5027 79.3404 28.2497C79.2944 28.2324 79.2513 28.2152 79.2053 28.2008C78.5152 27.9363 77.8252 27.6316 77.164 27.2808C77.1295 27.2635 77.095 27.2463 77.0605 27.229C76.3934 26.8725 75.7552 26.4729 75.1715 26.033C75.1485 26.0158 75.1227 25.9956 75.0997 25.9755C74.8064 25.7513 74.5275 25.5213 74.2688 25.2769C74.1624 25.3459 74.0675 25.4292 73.9755 25.5184C74.0675 25.8375 74.1911 26.3176 74.102 26.5937C73.9525 27.0709 73.619 27.2894 73.3056 27.4389C73.2107 27.4849 73.1187 27.5166 73.0267 27.5424C72.101 31.6049 73.5097 39.2468 73.5787 41.0524C73.8404 47.7628 75.275 54.8441 75.7207 61.5315C75.7494 61.9656 76.0283 62.5177 76.4653 62.5435C77.4658 62.6039 77.3738 61.5171 77.3738 61.5171C77.1496 58.9583 76.0254 51.118 75.6172 46.262C75.1744 40.9978 72.8312 30.1674 74.6655 27.6143C76.5774 24.9577 83.1039 32.1943 85.4298 34.7301C91.7521 41.6245 96.7001 49.3671 102.065 56.9429C102.16 57.078 103.068 57.4748 103.387 57.4518C103.891 57.4144 104.247 57.1413 104.06 56.8739Z" fill="white"/>
<path d="M104.267 56.546C98.3676 48.2256 93.3966 40.2128 85.8611 32.3207C85.2602 31.7112 84.2338 30.4519 83.0262 29.1639C82.6295 29.1121 82.1953 29.0057 81.7612 28.9109C83.2735 30.4145 84.6075 32.0562 85.3263 32.8296C92.7037 40.5549 97.7121 48.5332 103.528 56.7617C103.583 56.8393 103.758 57.098 103.531 57.259C103.221 57.4776 102.83 57.305 102.344 56.6984C96.9962 49.1398 92.0453 41.3944 85.7029 34.4799C84.7139 33.4046 82.963 31.4725 81.1201 29.8021C80.4617 29.2156 79.7889 28.609 79.1391 28.1288C78.107 27.7349 77.1352 27.2749 76.1951 26.6913C76.0829 26.674 75.9277 26.6712 75.8184 26.6683C75.2607 26.6597 74.7144 26.9012 74.3665 27.3986C73.7743 28.2467 73.6133 29.6066 73.6046 31.2972C73.6075 35.7506 74.9329 42.5071 75.2492 46.2907C75.6574 51.1581 76.7816 58.9898 77.0058 61.5372C77.0058 61.5372 77.1036 62.1409 76.5458 62.1754C76.1146 62.2042 76.0973 61.655 76.0887 61.5055C75.6402 54.7836 74.2055 47.7052 73.9468 41.0379C73.8893 39.609 73.0785 34.9629 73.0785 31.0327C73.0641 29.6181 73.1935 28.2496 73.458 27.2663C73.4091 27.2951 73.3574 27.3468 73.3085 27.3698C73.0727 27.4819 72.8514 27.5366 72.63 27.5538C72.4259 28.5658 72.3511 29.8165 72.3396 31.0327C72.3425 35.0348 73.1619 39.7642 73.2107 41.0667C73.4753 47.8173 74.9099 54.9015 75.3527 61.5544C75.4044 62.0892 75.6747 62.8137 76.4423 62.9114C77.1956 62.9057 77.4026 62.6584 77.5981 62.3882C77.7649 62.161 77.7419 61.7384 77.7447 61.5889C77.7476 60.8931 76.3906 51.0719 75.9852 46.2303C75.6574 42.3777 74.3406 35.6299 74.3435 31.2972C74.3349 29.667 74.5505 28.3818 74.9645 27.8298C75.1945 27.5222 75.4389 27.4129 75.8184 27.4072C76.8966 27.3756 78.8315 28.7038 80.6227 30.3484C82.434 31.9872 84.1705 33.902 85.1567 34.9773C91.4531 41.84 96.3924 49.5682 101.763 57.1527C101.976 57.3942 102.485 58.0008 103.232 57.9606C103.669 57.9376 104.379 57.6012 104.405 57.098C104.405 56.9658 104.339 56.6438 104.267 56.546Z" fill="#231F20"/>
<path d="M72.5208 28.1922C72.8629 26.079 73.9928 25.2912 75.0623 25.3171C76.2813 25.3315 77.3077 26.1307 77.3365 26.1422L76.8937 26.7345C76.8937 26.7345 76.6724 26.5649 76.3187 26.3924C75.968 26.217 75.4964 26.0531 75.0623 26.0531C74.3464 26.079 73.6277 26.3837 73.2453 28.3187" fill="#231F20"/>
<path d="M130.798 84.9001C130.686 84.5436 130.609 84.1756 130.566 83.7903C130.497 82.9796 130.428 82.1774 130.356 81.381C130.195 80.1764 129.916 79.5439 129.525 79.4892C129.122 79.4174 128.389 79.9608 127.334 81.1137C125.586 83.0055 124.594 84.075 124.358 84.3222C123.249 85.4866 122.374 86.0703 121.742 86.0674C120.842 86.0674 120.086 84.1641 119.468 80.3489C118.916 76.9592 118.743 74.1474 118.953 71.9106C119.091 70.4558 119.399 69.7082 119.876 69.668C120.557 69.599 121.063 70.1568 121.403 71.3355C121.782 72.7903 122.055 73.8857 122.222 74.6275C122.521 75.8206 122.883 76.4187 123.32 76.4187C123.769 76.4187 124.643 75.8379 125.94 74.6706C127.541 73.2043 128.743 72.1089 129.533 71.3815C130.873 70.2028 131.879 69.6134 132.552 69.6134C132.656 69.6134 132.759 69.6335 132.863 69.6766C133.392 69.9095 133.671 71.1084 133.691 73.2762C133.708 74.4981 133.648 75.8695 133.504 77.3933C133.369 78.8308 133.15 80.3546 132.857 81.9589C132.38 84.4545 131.923 85.7051 131.474 85.7051C131.21 85.7051 130.985 85.4378 130.798 84.9001Z" fill="#231F20"/>
<path d="M136.353 85.8748C135.752 85.7511 135.47 84.6385 135.496 82.5339C135.508 81.3494 135.611 80.0412 135.807 78.6008C136.005 77.1058 136.313 75.5101 136.73 73.811C137.345 71.2033 137.946 69.8175 138.527 69.6536C138.581 69.6421 138.65 69.6335 138.728 69.6335C139.182 69.6335 139.541 70.0964 139.806 71.0193C139.955 71.5885 140.2 72.4511 140.539 73.604C140.841 74.5384 141.304 75.0156 141.928 75.0271C142.874 75.053 143.564 75.0329 143.998 74.9667C144.328 74.9121 144.717 74.7827 145.171 74.5786C145.585 74.386 145.872 73.8627 146.045 73.0059C146.2 72.2297 146.332 71.4879 146.442 70.7806C146.677 70.0302 147.06 69.6479 147.597 69.6335C148.201 69.6076 148.842 70.9531 149.518 73.6701C150.159 76.2375 150.559 78.782 150.714 81.3091C150.783 82.5713 150.769 83.5862 150.665 84.3452C150.547 85.2307 150.314 85.7339 149.966 85.8546C149.84 85.892 149.725 85.915 149.616 85.915C149.069 85.915 148.595 85.4607 148.198 84.5493C147.948 83.914 147.572 82.9623 147.06 81.703C146.577 80.5214 146.071 79.7221 145.539 79.3023C144.685 78.6095 143.937 78.2616 143.296 78.2616C142.644 78.2616 141.87 78.7187 140.97 79.6301C140.631 79.9694 140.186 80.7658 139.631 82.0193C139.021 83.3936 138.55 84.3222 138.213 84.8139C137.716 85.547 137.187 85.915 136.626 85.915C136.534 85.915 136.442 85.9006 136.353 85.8748Z" fill="#231F20"/>
<path d="M162.286 75.9241C162.358 75.3663 162.26 74.9063 161.99 74.5412C161.723 74.1732 161.323 73.9892 160.791 73.9892C160.259 73.9892 159.802 74.1761 159.414 74.5498C159.026 74.9236 158.793 75.3807 158.721 75.9241C158.572 77.0368 158.767 77.9654 159.305 78.7129C159.728 79.2966 160.188 79.5869 160.676 79.5869C160.757 79.5869 160.811 79.5783 160.84 79.5639C161.326 79.4029 161.7 78.8596 161.956 77.9395C162.039 77.5974 162.148 76.9275 162.286 75.9241ZM168.12 73.3193C167.714 76.3295 166.947 79.0177 165.817 81.3752C164.423 84.2934 162.827 85.8086 161.024 85.9121C159.894 85.984 158.609 85.0582 157.172 83.1492C156.082 81.7231 155.237 80.2712 154.633 78.7934C153.767 76.6889 153.44 74.8661 153.647 73.3193C153.825 71.9738 154.9 70.9761 156.87 70.3263C158.253 69.8663 159.759 69.6335 161.386 69.6335C163.014 69.6335 164.454 69.8663 165.716 70.3263C167.496 70.9905 168.295 71.9881 168.12 73.3193Z" fill="#231F20"/>
<path d="M170.089 85.915C169.379 86.0501 169.014 84.834 169 82.2636C168.994 80.6047 169.089 79.0464 169.287 77.5916C169.491 76.0535 169.776 74.6821 170.138 73.4688C170.716 71.554 171.417 70.3608 172.24 69.9008C172.556 69.7226 172.861 69.6335 173.154 69.6335C173.982 69.6335 174.744 70.2602 175.445 71.5109C175.836 72.2756 176.429 73.417 177.225 74.9408C177.892 76.1656 178.473 76.7493 178.973 76.6946C179.528 76.6285 180.235 75.9902 181.092 74.7827C181.607 74.0237 182.383 72.9053 183.421 71.4246C184.289 70.2315 184.991 69.6335 185.525 69.6335C185.735 69.6335 185.931 69.7283 186.106 69.9181C186.931 70.8295 187.63 73.1065 188.211 76.7579C188.769 80.162 188.938 82.6863 188.717 84.3279C188.573 85.386 188.237 85.915 187.705 85.915C187.104 85.915 186.457 85.4262 185.758 84.4487C185.347 83.8392 184.729 82.922 183.907 81.703C183.225 80.7111 182.67 80.2166 182.242 80.2166C181.791 80.2166 181.305 80.6651 180.782 81.565C180.434 82.1774 179.905 83.0773 179.197 84.2618C178.585 85.2537 177.932 85.8057 177.237 85.915C176.552 86.0214 176.075 85.5757 175.796 84.5694C175.647 83.8881 175.422 82.8674 175.123 81.5075C174.842 80.323 174.422 79.6329 173.861 79.4432C173.732 79.4173 173.646 79.4029 173.605 79.4029C173.111 79.4029 172.7 79.9406 172.369 81.0159C172.185 81.6829 171.898 82.6949 171.501 84.0577C171.15 85.1876 170.679 85.8057 170.089 85.915Z" fill="#231F20"/>
<path d="M196.879 75.0904C196.741 76.134 196.77 77.0224 196.965 77.7556C197.063 78.1063 197.25 78.2846 197.535 78.2846C197.813 78.2846 198.181 78.1149 198.641 77.7728C199.038 77.5054 199.366 77.2179 199.616 76.9218C199.665 76.8672 199.699 76.7838 199.711 76.6745C199.771 76.2289 199.561 75.5561 199.078 74.662C198.598 73.765 198.161 73.3193 197.759 73.3193C197.333 73.3193 197.04 73.9087 196.879 75.0904ZM190.663 85.6304C190.476 85.547 190.433 85.1186 190.537 84.3481C190.726 82.9393 191.221 81.1251 192.023 78.9142C192.894 76.5135 193.852 74.4578 194.895 72.7472C196.091 70.7663 197.172 69.7284 198.13 69.6335C199.199 69.5271 200.456 70.6053 201.902 72.8708C203.138 74.7971 204.236 77.1029 205.197 79.7882C206.131 82.3815 206.528 84.1698 206.398 85.1617C206.329 85.6649 206.056 85.915 205.576 85.915C205.082 85.915 204.317 85.4119 203.279 84.4085C202.181 83.3361 201.427 82.7266 201.019 82.577C200.752 82.4678 200.369 82.2982 199.866 82.0682C199.464 81.8928 199.058 81.8037 198.641 81.8037C197.934 81.8037 196.939 82.0624 195.657 82.577C194.769 82.9307 193.969 83.3907 193.251 83.96C193.038 84.1238 192.598 84.5321 191.925 85.1819C191.557 85.5355 191.253 85.7109 191.014 85.7109C190.907 85.7109 190.792 85.6821 190.663 85.6304Z" fill="#231F20"/>
<path d="M210.041 85.915C209.328 86.0501 208.966 84.834 208.948 82.2636C208.943 80.6047 209.04 79.0464 209.236 77.5916C209.443 76.0535 209.725 74.6821 210.09 73.4688C210.668 71.554 211.364 70.3608 212.189 69.9008C212.502 69.7226 212.81 69.6335 213.103 69.6335C213.931 69.6335 214.696 70.2602 215.394 71.5109C215.788 72.2756 216.381 73.417 217.174 74.9408C217.841 76.1656 218.419 76.7493 218.922 76.6946C219.48 76.6285 220.184 75.9902 221.038 74.7827C221.556 74.0237 222.332 72.9053 223.37 71.4246C224.238 70.2315 224.94 69.6335 225.472 69.6335C225.687 69.6335 225.883 69.7283 226.055 69.9181C226.88 70.8295 227.585 73.1065 228.16 76.7579C228.715 80.162 228.887 82.6863 228.666 84.3279C228.525 85.386 228.186 85.915 227.657 85.915C227.053 85.915 226.403 85.4262 225.707 84.4487C225.296 83.8392 224.678 82.922 223.856 81.703C223.171 80.7111 222.617 80.2166 222.191 80.2166C221.74 80.2166 221.254 80.6651 220.733 81.565C220.38 82.1774 219.854 83.0773 219.149 84.2618C218.534 85.2537 217.881 85.8057 217.186 85.915C216.504 86.0214 216.024 85.5757 215.745 84.5694C215.596 83.8881 215.374 82.8674 215.075 81.5075C214.794 80.323 214.371 79.6329 213.81 79.4432C213.678 79.4173 213.595 79.4029 213.554 79.4029C213.06 79.4029 212.649 79.9406 212.318 81.0159C212.137 81.6829 211.847 82.6949 211.453 84.0577C211.099 85.1876 210.628 85.8057 210.041 85.915Z" fill="#231F20"/>
<path d="M236.831 75.0904C236.693 76.134 236.716 77.0224 236.912 77.7556C237.012 78.1063 237.202 78.2846 237.484 78.2846C237.763 78.2846 238.131 78.1149 238.591 77.7728C238.987 77.5054 239.312 77.2179 239.568 76.9218C239.614 76.8672 239.646 76.7838 239.663 76.6745C239.721 76.2289 239.508 75.5561 239.031 74.662C238.548 73.765 238.108 73.3193 237.708 73.3193C237.283 73.3193 236.989 73.9087 236.831 75.0904ZM230.612 85.6304C230.423 85.547 230.379 85.1186 230.486 84.3481C230.676 82.9393 231.17 81.1251 231.975 78.9142C232.843 76.5135 233.798 74.4578 234.844 72.7472C236.043 70.7663 237.124 69.7284 238.082 69.6335C239.151 69.5271 240.408 70.6053 241.851 72.8708C243.087 74.7971 244.188 77.1029 245.149 79.7882C246.08 82.3815 246.48 84.1698 246.348 85.1617C246.279 85.6649 246.008 85.915 245.525 85.915C245.034 85.915 244.266 85.4119 243.225 84.4085C242.127 83.3361 241.377 82.7266 240.971 82.577C240.704 82.4678 240.321 82.2982 239.815 82.0682C239.416 81.8928 239.005 81.8037 238.591 81.8037C237.883 81.8037 236.889 82.0624 235.606 82.577C234.721 82.9307 233.916 83.3907 233.2 83.96C232.99 84.1238 232.55 84.5321 231.875 85.1819C231.509 85.5355 231.202 85.7109 230.96 85.7109C230.854 85.7109 230.739 85.6821 230.612 85.6304Z" fill="#231F20"/>
<path d="M250.652 86.0358C250.568 86.0645 250.505 86.076 250.468 86.076C250.013 86.076 249.614 85.5211 249.272 84.4085C248.975 83.4195 248.866 82.6374 248.944 82.0711C249.007 81.5938 249.346 81.3552 249.959 81.3552C250.988 81.3552 251.776 81.7289 252.331 82.4764C252.512 82.7208 252.578 83.0313 252.526 83.4108C252.466 83.8737 252.247 84.3682 251.868 84.8973C251.491 85.4263 251.086 85.8058 250.652 86.0358Z" fill="#231F20"/>
<path d="M129.781 85.2738C129.671 84.9173 129.591 84.5493 129.551 84.1641C129.482 83.3562 129.413 82.5511 129.341 81.7576C129.177 80.5501 128.901 79.9205 128.51 79.863C128.104 79.794 127.374 80.3373 126.316 81.4874C124.571 83.3792 123.576 84.4516 123.343 84.6959C122.234 85.8632 121.36 86.444 120.724 86.444C119.827 86.444 119.068 84.5378 118.453 80.7226C117.898 77.3329 117.728 74.5211 117.938 72.2871C118.076 70.8324 118.384 70.0848 118.861 70.0417C119.54 69.9756 120.049 70.5305 120.388 71.7121C120.764 73.164 121.04 74.2623 121.207 75.0041C121.503 76.1972 121.868 76.7953 122.305 76.7953C122.754 76.7953 123.628 76.2116 124.922 75.0472C126.529 73.5809 127.725 72.4827 128.519 71.7553C129.858 70.5765 130.862 69.9871 131.537 69.9871C131.641 69.9871 131.744 70.0072 131.848 70.0503C132.377 70.2832 132.656 71.485 132.676 73.6528C132.693 74.8747 132.63 76.2432 132.486 77.767C132.351 79.2074 132.135 80.7284 131.842 82.3355C131.368 84.8311 130.908 86.0789 130.456 86.0789C130.195 86.0789 129.968 85.8115 129.781 85.2738Z" fill="#0FA245"/>
<path d="M129.781 85.2739C129.671 84.9174 129.591 84.5493 129.551 84.1641C129.482 83.3562 129.413 82.5512 129.341 81.7577C129.177 80.5501 128.901 79.9205 128.51 79.863C128.104 79.794 127.374 80.3374 126.316 81.4874C124.571 83.3792 123.576 84.4516 123.343 84.696C122.234 85.8633 121.36 86.444 120.724 86.444C119.827 86.444 119.068 84.5378 118.453 80.7226C117.898 77.3329 117.728 74.5211 117.938 72.2872C118.076 70.8324 118.384 70.0849 118.861 70.0417C119.54 69.9756 120.049 70.5305 120.388 71.7122C120.764 73.1641 121.04 74.2623 121.207 75.0041C121.503 76.1973 121.868 76.7953 122.305 76.7953C122.754 76.7953 123.628 76.2116 124.922 75.0472C126.529 73.581 127.725 72.4827 128.519 71.7553C129.858 70.5765 130.862 69.9871 131.537 69.9871C131.641 69.9871 131.744 70.0072 131.848 70.0504C132.377 70.2832 132.656 71.485 132.676 73.6528C132.693 74.8747 132.63 76.2433 132.486 77.7671C132.351 79.2075 132.135 80.7284 131.842 82.3355C131.368 84.8311 130.908 86.0789 130.456 86.0789C130.195 86.0789 129.968 85.8115 129.781 85.2739Z" stroke="#231F20" stroke-width="0.632"/>
<path d="M135.336 86.2486C134.737 86.1279 134.456 85.0152 134.482 82.9078C134.493 81.7261 134.597 80.418 134.789 78.9747C134.991 77.4797 135.298 75.8869 135.712 74.1877C136.33 71.58 136.928 70.1942 137.512 70.0304C137.569 70.016 137.636 70.0102 137.713 70.0102C138.167 70.0102 138.527 70.4702 138.788 71.3931C138.938 71.9624 139.185 72.8249 139.524 73.9807C139.826 74.9151 140.286 75.3895 140.913 75.4039C141.856 75.4297 142.549 75.4096 142.983 75.3435C143.311 75.2889 143.702 75.1566 144.156 74.9554C144.57 74.7627 144.858 74.2395 145.03 73.3798C145.186 72.6035 145.318 71.8647 145.427 71.1545C145.66 70.407 146.045 70.0246 146.583 70.0102C147.184 69.9815 147.825 71.3299 148.5 74.044C149.144 76.6143 149.544 79.1587 149.699 81.6859C149.768 82.948 149.754 83.9629 149.65 84.722C149.533 85.6046 149.3 86.1077 148.949 86.2314C148.822 86.2688 148.707 86.2918 148.601 86.2918C148.055 86.2918 147.58 85.8346 147.184 84.929C146.934 84.2907 146.554 83.3391 146.042 82.0798C145.562 80.8981 145.053 80.0989 144.524 79.6762C143.67 78.9833 142.923 78.6383 142.282 78.6383C141.626 78.6383 140.853 79.0955 139.956 80.0068C139.616 80.3461 139.171 81.1425 138.616 82.3932C138.006 83.7674 137.532 84.699 137.199 85.1877C136.701 85.9237 136.172 86.2918 135.612 86.2918C135.52 86.2918 135.425 86.2774 135.336 86.2486Z" fill="#0FA245"/>
<path d="M135.336 86.2485C134.737 86.1278 134.456 85.0151 134.482 82.9077C134.493 81.726 134.597 80.4179 134.789 78.9746C134.99 77.4796 135.298 75.8868 135.712 74.1876C136.33 71.5799 136.928 70.1941 137.512 70.0303C137.569 70.0159 137.636 70.0101 137.713 70.0101C138.167 70.0101 138.527 70.4701 138.788 71.393C138.938 71.9623 139.185 72.8248 139.524 73.9806C139.826 74.915 140.286 75.3894 140.913 75.4038C141.856 75.4296 142.549 75.4095 142.983 75.3434C143.311 75.2888 143.702 75.1565 144.156 74.9553C144.57 74.7626 144.858 74.2394 145.03 73.3797C145.185 72.6034 145.318 71.8646 145.427 71.1544C145.66 70.4069 146.045 70.0245 146.583 70.0101C147.184 69.9814 147.825 71.3298 148.5 74.0439C149.144 76.6142 149.544 79.1586 149.699 81.6858C149.768 82.9479 149.754 83.9628 149.65 84.7219C149.533 85.6045 149.3 86.1077 148.949 86.2313C148.822 86.2687 148.707 86.2917 148.601 86.2917C148.055 86.2917 147.58 85.8345 147.184 84.9289C146.934 84.2906 146.554 83.339 146.042 82.0797C145.562 80.898 145.053 80.0988 144.524 79.6761C143.67 78.9832 142.923 78.6382 142.282 78.6382C141.626 78.6382 140.853 79.0954 139.956 80.0068C139.616 80.346 139.171 81.1424 138.616 82.3931C138.006 83.7673 137.532 84.6989 137.199 85.1876C136.701 85.9236 136.172 86.2917 135.612 86.2917C135.52 86.2917 135.425 86.2773 135.336 86.2485Z" stroke="#231F20" stroke-width="0.632"/>
<path d="M161.269 76.2979C161.343 75.743 161.246 75.283 160.975 74.915C160.708 74.547 160.308 74.3658 159.776 74.3658C159.245 74.3658 158.785 74.5527 158.396 74.9265C158.008 75.2974 157.778 75.7574 157.703 76.2979C157.554 77.4134 157.749 78.3392 158.287 79.0867C158.713 79.6704 159.173 79.9607 159.661 79.9607C159.742 79.9607 159.797 79.955 159.825 79.9406C160.311 79.7796 160.682 79.2362 160.938 78.3133C161.024 77.9741 161.133 77.3013 161.269 76.2979ZM167.102 73.6931C166.7 76.7062 165.929 79.3915 164.802 81.7519C163.408 84.6701 161.809 86.1824 160.006 86.2916C158.879 86.3578 157.594 85.4349 156.157 83.5229C155.067 82.0969 154.222 80.6479 153.618 79.1672C152.753 77.0655 152.425 75.2399 152.632 73.6931C152.81 72.3504 153.885 71.3528 155.855 70.703C157.238 70.243 158.741 70.0101 160.372 70.0101C161.996 70.0101 163.439 70.243 164.699 70.703C166.481 71.3671 167.28 72.3648 167.102 73.6931Z" fill="#0FA245"/>
<path d="M161.269 76.2978C161.343 75.7429 161.246 75.2829 160.975 74.9149C160.708 74.5469 160.308 74.3658 159.776 74.3658C159.245 74.3658 158.785 74.5526 158.396 74.9264C158.008 75.2973 157.778 75.7573 157.703 76.2978C157.554 77.4133 157.749 78.3391 158.287 79.0866C158.713 79.6703 159.173 79.9607 159.661 79.9607C159.742 79.9607 159.797 79.9549 159.825 79.9405C160.311 79.7795 160.682 79.2361 160.938 78.3132C161.024 77.974 161.133 77.3012 161.269 76.2978ZM167.102 73.693C166.7 76.7061 165.929 79.3914 164.802 81.7518C163.408 84.67 161.809 86.1823 160.006 86.2916C158.879 86.3577 157.594 85.4348 156.157 83.5229C155.067 82.0968 154.222 80.6478 153.618 79.1671C152.753 77.0655 152.425 75.2398 152.632 73.693C152.81 72.3503 153.885 71.3527 155.855 70.7029C157.238 70.2429 158.741 70.01 160.372 70.01C161.996 70.01 163.439 70.2429 164.699 70.7029C166.481 71.3671 167.28 72.3647 167.102 73.693Z" stroke="#231F20" stroke-width="0.632"/>
<path d="M169.074 86.2888C168.361 86.4239 167.999 85.2077 167.985 82.6374C167.979 80.9785 168.074 79.4202 168.269 77.9683C168.476 76.4301 168.761 75.0559 169.123 73.8455C169.701 71.9278 170.4 70.7375 171.222 70.2746C171.541 70.0992 171.846 70.0101 172.139 70.0101C172.964 70.0101 173.729 70.6369 174.431 71.8875C174.822 72.6494 175.414 73.7937 176.21 75.3175C176.874 76.5394 177.458 77.1259 177.955 77.0713C178.513 77.0023 179.22 76.3669 180.074 75.1565C180.589 74.3975 181.368 73.2791 182.406 71.8013C183.274 70.6081 183.973 70.0101 184.511 70.0101C184.72 70.0101 184.913 70.105 185.091 70.2947C185.916 71.2033 186.615 73.4832 187.196 77.1345C187.754 80.5386 187.923 83.0629 187.702 84.7017C187.558 85.7598 187.222 86.2888 186.687 86.2888C186.089 86.2888 185.439 85.8 184.743 84.8225C184.332 84.213 183.714 83.2987 182.889 82.0797C182.208 81.0878 181.656 80.5904 181.227 80.5904C180.773 80.5904 180.287 81.0418 179.767 81.9388C179.419 82.5512 178.89 83.4511 178.182 84.6356C177.57 85.6304 176.915 86.1824 176.222 86.2888C175.537 86.398 175.057 85.9495 174.781 84.9432C174.629 84.2618 174.408 83.2441 174.109 81.8813C173.827 80.6996 173.407 80.0096 172.846 79.8199C172.714 79.7911 172.631 79.7796 172.59 79.7796C172.096 79.7796 171.682 80.3144 171.354 81.3896C171.17 82.0595 170.88 83.0716 170.486 84.4343C170.135 85.5614 169.661 86.1824 169.074 86.2888Z" fill="#ED1C24"/>
<path d="M169.074 86.2889C168.361 86.424 167.999 85.2078 167.985 82.6375C167.979 80.9786 168.074 79.4203 168.269 77.9684C168.476 76.4302 168.761 75.056 169.123 73.8456C169.701 71.9279 170.4 70.7376 171.222 70.2747C171.541 70.0993 171.846 70.0102 172.139 70.0102C172.964 70.0102 173.729 70.637 174.431 71.8876C174.822 72.6495 175.414 73.7938 176.21 75.3176C176.874 76.5395 177.458 77.126 177.955 77.0714C178.513 77.0024 179.22 76.367 180.074 75.1566C180.589 74.3976 181.368 73.2792 182.406 71.8014C183.274 70.6082 183.973 70.0102 184.511 70.0102C184.72 70.0102 184.913 70.1051 185.091 70.2948C185.916 71.2034 186.615 73.4833 187.196 77.1346C187.754 80.5387 187.923 83.063 187.702 84.7018C187.558 85.7599 187.222 86.2889 186.687 86.2889C186.089 86.2889 185.439 85.8001 184.743 84.8226C184.332 84.2131 183.714 83.2988 182.889 82.0798C182.208 81.0879 181.656 80.5905 181.227 80.5905C180.773 80.5905 180.287 81.0419 179.767 81.9389C179.419 82.5513 178.89 83.4512 178.182 84.6357C177.57 85.6305 176.915 86.1825 176.222 86.2889C175.537 86.3981 175.057 85.9496 174.781 84.9433C174.629 84.2619 174.408 83.2442 174.109 81.8814C173.827 80.6997 173.407 80.0097 172.846 79.82C172.714 79.7912 172.631 79.7797 172.59 79.7797C172.096 79.7797 171.682 80.3145 171.354 81.3897C171.17 82.0596 170.88 83.0717 170.486 84.4344C170.135 85.5615 169.661 86.1825 169.074 86.2889Z" stroke="#231F20" stroke-width="0.565"/>
<path d="M195.864 75.4641C195.723 76.5078 195.752 77.3962 195.95 78.1293C196.045 78.4829 196.235 78.6583 196.52 78.6583C196.799 78.6583 197.167 78.4916 197.627 78.1494C198.023 77.8792 198.351 77.5945 198.601 77.2955C198.65 77.2409 198.682 77.1604 198.696 77.0511C198.754 76.6055 198.544 75.9299 198.064 75.0357C197.583 74.1416 197.144 73.6931 196.744 73.6931C196.316 73.6931 196.022 74.2853 195.864 75.4641ZM189.648 86.0041C189.461 85.9236 189.418 85.4952 189.522 84.7218C189.711 83.313 190.206 81.5018 191.005 79.2908C191.876 76.8901 192.837 74.8345 193.877 73.1238C195.076 71.1429 196.157 70.105 197.115 70.0101C198.184 69.9037 199.441 70.979 200.887 73.2474C202.123 75.1737 203.219 77.4795 204.182 80.1648C205.116 82.7553 205.513 84.5465 205.383 85.5384C205.314 86.0386 205.041 86.2887 204.561 86.2887C204.067 86.2887 203.302 85.7885 202.261 84.7851C201.166 83.7127 200.412 83.1032 200.004 82.9508C199.737 82.8415 199.354 82.6748 198.851 82.4448C198.449 82.2665 198.041 82.1803 197.627 82.1803C196.919 82.1803 195.922 82.439 194.642 82.9508C193.754 83.3044 192.952 83.7644 192.236 84.3337C192.023 84.5005 191.583 84.9058 190.91 85.5556C190.542 85.9092 190.235 86.0875 189.999 86.0875C189.89 86.0875 189.778 86.0587 189.648 86.0041Z" fill="#ED1C24"/>
<path d="M195.864 75.4641C195.723 76.5078 195.752 77.3962 195.95 78.1293C196.045 78.4829 196.235 78.6583 196.52 78.6583C196.799 78.6583 197.167 78.4916 197.627 78.1494C198.023 77.8792 198.351 77.5945 198.601 77.2955C198.65 77.2409 198.682 77.1604 198.696 77.0512C198.754 76.6055 198.544 75.9299 198.064 75.0357C197.583 74.1416 197.144 73.6931 196.744 73.6931C196.316 73.6931 196.022 74.2853 195.864 75.4641ZM189.648 86.0041C189.461 85.9236 189.418 85.4952 189.522 84.7218C189.711 83.3131 190.206 81.5018 191.005 79.2908C191.876 76.8902 192.837 74.8345 193.877 73.1238C195.076 71.1429 196.157 70.105 197.115 70.0101C198.184 69.9037 199.441 70.979 200.887 73.2474C202.123 75.1737 203.219 77.4795 204.182 80.1649C205.116 82.7553 205.513 84.5465 205.383 85.5384C205.314 86.0386 205.041 86.2888 204.561 86.2888C204.067 86.2888 203.302 85.7885 202.261 84.7851C201.166 83.7127 200.412 83.1032 200.004 82.9508C199.737 82.8415 199.354 82.6748 198.851 82.4448C198.449 82.2665 198.041 82.1803 197.627 82.1803C196.919 82.1803 195.922 82.439 194.642 82.9508C193.754 83.3044 192.952 83.7644 192.236 84.3337C192.023 84.5005 191.583 84.9058 190.91 85.5556C190.542 85.9092 190.235 86.0875 189.999 86.0875C189.89 86.0875 189.778 86.0588 189.648 86.0041Z" stroke="#231F20" stroke-width="0.565"/>
<path d="M209.026 86.2888C208.313 86.4239 207.951 85.2077 207.934 82.6374C207.928 80.9785 208.026 79.4202 208.221 77.9683C208.425 76.4301 208.71 75.0559 209.072 73.8455C209.65 71.9278 210.346 70.7375 211.174 70.2746C211.487 70.0992 211.792 70.0101 212.088 70.0101C212.916 70.0101 213.678 70.6369 214.379 71.8875C214.771 72.6494 215.363 73.7937 216.159 75.3175C216.823 76.5394 217.404 77.1259 217.904 77.0713C218.462 77.0023 219.169 76.3669 220.023 75.1565C220.541 74.3975 221.314 73.2791 222.355 71.8013C223.223 70.6081 223.922 70.0101 224.457 70.0101C224.672 70.0101 224.868 70.105 225.04 70.2947C225.863 71.2033 226.567 73.4832 227.142 77.1345C227.7 80.5386 227.869 83.0629 227.651 84.7017C227.507 85.7598 227.171 86.2888 226.639 86.2888C226.038 86.2888 225.388 85.8 224.689 84.8225C224.281 84.213 223.663 83.2987 222.841 82.0797C222.157 81.0878 221.602 80.5904 221.176 80.5904C220.725 80.5904 220.239 81.0418 219.716 81.9388C219.365 82.5512 218.839 83.4511 218.134 84.6356C217.516 85.6304 216.866 86.1824 216.168 86.2888C215.489 86.398 215.009 85.9495 214.727 84.9432C214.578 84.2618 214.356 83.2441 214.057 81.8813C213.779 80.6996 213.353 80.0096 212.795 79.8199C212.663 79.7911 212.58 79.7796 212.539 79.7796C212.045 79.7796 211.634 80.3144 211.3 81.3896C211.119 82.0595 210.829 83.0716 210.435 84.4343C210.084 85.5614 209.613 86.1824 209.026 86.2888Z" fill="#ED1C24"/>
<path d="M209.026 86.2889C208.313 86.424 207.951 85.2078 207.934 82.6375C207.928 80.9786 208.026 79.4203 208.221 77.9684C208.425 76.4302 208.71 75.056 209.072 73.8456C209.65 71.9279 210.346 70.7376 211.174 70.2747C211.487 70.0993 211.792 70.0102 212.088 70.0102C212.916 70.0102 213.678 70.637 214.38 71.8876C214.771 72.6495 215.363 73.7938 216.159 75.3176C216.824 76.5395 217.404 77.126 217.905 77.0714C218.462 77.0024 219.17 76.367 220.024 75.1566C220.541 74.3976 221.314 73.2792 222.355 71.8014C223.223 70.6082 223.922 70.0102 224.457 70.0102C224.672 70.0102 224.868 70.1051 225.041 70.2948C225.863 71.2034 226.567 73.4833 227.142 77.1346C227.7 80.5387 227.87 83.063 227.651 84.7018C227.507 85.7599 227.171 86.2889 226.639 86.2889C226.038 86.2889 225.388 85.8001 224.69 84.8226C224.281 84.2131 223.663 83.2988 222.841 82.0798C222.157 81.0879 221.602 80.5905 221.176 80.5905C220.725 80.5905 220.239 81.0419 219.716 81.9389C219.365 82.5513 218.839 83.4512 218.135 84.6357C217.516 85.6305 216.867 86.1825 216.168 86.2889C215.49 86.3981 215.009 85.9496 214.728 84.9433C214.578 84.2619 214.357 83.2442 214.058 81.8814C213.779 80.6997 213.353 80.0097 212.796 79.82C212.663 79.7912 212.58 79.7797 212.54 79.7797C212.045 79.7797 211.634 80.3145 211.301 81.3897C211.119 82.0596 210.829 83.0717 210.435 84.4344C210.084 85.5615 209.613 86.1825 209.026 86.2889Z" stroke="#231F20" stroke-width="0.565"/>
<path d="M235.813 75.4641C235.675 76.5078 235.701 77.3962 235.897 78.1293C235.997 78.4829 236.187 78.6583 236.469 78.6583C236.748 78.6583 237.116 78.4916 237.576 78.1494C237.973 77.8792 238.297 77.5945 238.553 77.2955C238.596 77.2409 238.631 77.1604 238.645 77.0511C238.706 76.6055 238.493 75.9299 238.013 75.0357C237.533 74.1416 237.093 73.6931 236.693 73.6931C236.265 73.6931 235.971 74.2853 235.813 75.4641ZM229.597 86.0041C229.408 85.9236 229.365 85.4952 229.471 84.7218C229.661 83.313 230.155 81.5018 230.96 79.2908C231.829 76.8901 232.783 74.8345 233.83 73.1238C235.028 71.1429 236.109 70.105 237.067 70.0101C238.136 69.9037 239.393 70.979 240.836 73.2474C242.07 75.1737 243.171 77.4795 244.131 80.1648C245.062 82.7553 245.465 84.5465 245.33 85.5384C245.264 86.0386 244.991 86.2887 244.51 86.2887C244.019 86.2887 243.248 85.7885 242.21 84.7851C241.112 83.7127 240.362 83.1032 239.956 82.9508C239.689 82.8415 239.304 82.6748 238.801 82.4448C238.401 82.2665 237.99 82.1803 237.576 82.1803C236.869 82.1803 235.874 82.439 234.589 82.9508C233.706 83.3044 232.901 83.7644 232.182 84.3337C231.975 84.5005 231.535 84.9058 230.857 85.5556C230.492 85.9092 230.187 86.0875 229.945 86.0875C229.839 86.0875 229.724 86.0587 229.597 86.0041Z" fill="#ED1C24"/>
<path d="M235.813 75.4641C235.675 76.5078 235.701 77.3962 235.897 78.1293C235.997 78.4829 236.187 78.6583 236.469 78.6583C236.748 78.6583 237.116 78.4916 237.576 78.1494C237.973 77.8792 238.297 77.5945 238.553 77.2955C238.596 77.2409 238.631 77.1604 238.645 77.0512C238.706 76.6055 238.493 75.9299 238.013 75.0357C237.533 74.1416 237.093 73.6931 236.693 73.6931C236.265 73.6931 235.971 74.2853 235.813 75.4641ZM229.597 86.0041C229.408 85.9236 229.365 85.4952 229.471 84.7218C229.661 83.3131 230.155 81.5018 230.96 79.2908C231.829 76.8902 232.783 74.8345 233.83 73.1238C235.028 71.1429 236.109 70.105 237.067 70.0101C238.136 69.9037 239.393 70.979 240.836 73.2474C242.07 75.1737 243.171 77.4795 244.131 80.1649C245.062 82.7553 245.465 84.5465 245.33 85.5384C245.264 86.0386 244.991 86.2888 244.51 86.2888C244.019 86.2888 243.248 85.7885 242.21 84.7851C241.112 83.7127 240.362 83.1032 239.956 82.9508C239.689 82.8415 239.304 82.6748 238.801 82.4448C238.401 82.2665 237.99 82.1803 237.576 82.1803C236.869 82.1803 235.874 82.439 234.589 82.9508C233.706 83.3044 232.901 83.7644 232.182 84.3337C231.975 84.5005 231.535 84.9058 230.857 85.5556C230.492 85.9092 230.187 86.0875 229.945 86.0875C229.839 86.0875 229.724 86.0588 229.597 86.0041Z" stroke="#231F20" stroke-width="0.565"/>
<path d="M249.637 86.4124C249.553 86.4411 249.49 86.4526 249.453 86.4526C248.998 86.4526 248.599 85.8949 248.257 84.7851C247.961 83.7961 247.851 83.0141 247.929 82.4448C247.995 81.9704 248.331 81.7318 248.944 81.7318C249.973 81.7318 250.761 82.1055 251.316 82.8531C251.497 83.0946 251.563 83.4079 251.511 83.7875C251.451 84.2475 251.232 84.7449 250.853 85.271C250.473 85.8 250.071 86.1824 249.637 86.4124Z" fill="#0FA245"/>
<path d="M249.637 86.4124C249.553 86.4411 249.49 86.4526 249.453 86.4526C248.998 86.4526 248.599 85.8949 248.257 84.7851C247.961 83.7961 247.851 83.0141 247.929 82.4448C247.995 81.9704 248.331 81.7318 248.944 81.7318C249.973 81.7318 250.761 82.1055 251.316 82.853C251.497 83.0946 251.563 83.4079 251.511 83.7874C251.451 84.2475 251.232 84.7448 250.853 85.271C250.473 85.8 250.071 86.1824 249.637 86.4124Z" stroke="#231F20" stroke-width="0.577"/>
<path d="M260.338 77.2525C259.458 77.2525 258.518 76.4907 258.696 75.4355C258.696 75.4355 258.403 73.8513 260.573 73.9663C261.807 74.0353 262.919 74.6132 262.862 75.7288C262.802 76.8414 261.217 77.2525 260.338 77.2525ZM267.729 75.3751C266.844 72.6553 263.566 70.9763 258.636 70.6226C254.38 70.3179 254.705 73.6156 254.705 73.6156L254.237 84.7047C254.119 87.1112 254.47 87.1112 255.643 87.1112C256.816 87.1112 257.112 85.9956 257.638 84.0578C258.167 82.1229 260.55 80.0845 262.98 79.659C265.323 79.2478 268.609 78.0748 267.729 75.3751Z" fill="#231F20"/>
<path d="M259.487 76.5165C258.607 76.5165 257.667 75.7546 257.845 74.6995C257.845 74.6995 257.552 73.1153 259.722 73.2332C260.956 73.2993 262.069 73.8772 262.011 74.9927C261.954 76.1054 260.367 76.5165 259.487 76.5165ZM266.879 74.6391C265.993 71.9193 262.715 70.2402 257.785 69.8866C253.532 69.5818 253.854 72.8796 253.854 72.8796L253.386 83.9687C253.268 86.3751 253.619 86.3751 254.792 86.3751C255.968 86.3751 256.261 85.2596 256.787 83.3247C257.316 81.3869 259.699 79.3485 262.129 78.923C264.472 78.5118 267.758 77.3388 266.879 74.6391Z" fill="#0FA245"/>
<path d="M259.487 76.5164C258.607 76.5164 257.667 75.7545 257.845 74.6994C257.845 74.6994 257.552 73.1152 259.722 73.2331C260.956 73.2992 262.069 73.8771 262.011 74.9926C261.954 76.1053 260.367 76.5164 259.487 76.5164ZM266.879 74.639C265.993 71.9192 262.715 70.2401 257.785 69.8865C253.532 69.5817 253.854 72.8794 253.854 72.8794L253.386 83.9686C253.268 86.375 253.619 86.375 254.792 86.375C255.968 86.375 256.261 85.2595 256.787 83.3246C257.316 81.3868 259.699 79.3484 262.129 78.9228C264.472 78.5117 267.758 77.3387 266.879 74.639Z" stroke="#231F20" stroke-width="0.638"/>
<path d="M268.043 72.2267C267.885 71.8127 267.442 70.7921 268.241 70.4672C269.296 70.0359 272.31 74.1444 273.402 75.2801C274.497 76.4129 275.829 76.4531 277.12 74.6131C278.41 72.773 279.192 71.209 279.897 71.0135C280.601 70.818 280.912 71.9134 280.797 74.3399C280.679 76.7665 277.079 83.1808 272.58 86.2312C268.083 89.2817 268.946 85.3313 270.314 83.6868C271.683 82.0451 272.505 80.7542 271.956 79.7393C271.407 78.7215 268.555 73.5579 268.043 72.2267Z" fill="#231F20"/>
<path d="M266.83 71.6575C266.672 71.2463 266.229 70.2228 267.028 69.8979C268.083 69.4695 271.096 73.5751 272.192 74.7108C273.284 75.8436 274.615 75.8838 275.906 74.0438C277.197 72.2066 277.979 70.6397 278.684 70.4471C279.388 70.2487 279.701 71.3469 279.584 73.7706C279.466 76.1972 275.866 82.6115 271.37 85.6648C266.87 88.7124 267.733 84.762 269.101 83.1204C270.47 81.4758 271.292 80.1878 270.743 79.17C270.196 78.1522 267.342 72.9886 266.83 71.6575Z" fill="#0FA245"/>
<path d="M266.83 71.6574C266.671 71.2463 266.229 70.2228 267.028 69.8979C268.083 69.4695 271.096 73.5751 272.192 74.7108C273.284 75.8436 274.615 75.8838 275.906 74.0438C277.197 72.2066 277.979 70.6397 278.683 70.447C279.388 70.2487 279.701 71.3469 279.583 73.7706C279.465 76.1972 275.866 82.6115 271.369 85.6648C266.87 88.7124 267.732 84.762 269.101 83.1204C270.469 81.4758 271.292 80.1878 270.743 79.17C270.196 78.1522 267.341 72.9886 266.83 71.6574Z" stroke="#231F20" stroke-width="0.638"/>
<path d="M127.912 59.1136H128.889V63.7999L131.601 59.1136H132.656V65.2605H131.678V60.6L128.964 65.2605H127.912" fill="#231F20"/>
<path d="M136.362 59.1136H137.339V61.6724H140.053V59.1136H141.031V65.2605H140.053V62.532H137.339V65.2605H136.362" fill="#231F20"/>
<path d="M144.202 59.1136H148.894V59.9761H147.034V65.2605H146.062V59.9761H144.202" fill="#231F20"/>
<path d="M152.669 61.5948H155.895C155.849 61.0802 155.728 60.692 155.524 60.4333C155.214 60.0308 154.808 59.8295 154.311 59.8295C153.862 59.8295 153.486 59.9905 153.178 60.3125C152.873 60.6317 152.704 61.06 152.669 61.5948ZM155.884 63.2825L156.896 63.4147C156.735 64.0415 156.438 64.5331 156.007 64.8781C155.576 65.226 155.027 65.4014 154.357 65.4014C153.512 65.4014 152.842 65.1225 152.347 64.5676C151.853 64.0156 151.605 63.2394 151.605 62.2388C151.605 61.2038 151.856 60.4017 152.356 59.8295C152.856 59.2603 153.503 58.9727 154.302 58.9727C155.073 58.9727 155.702 59.2545 156.194 59.8123C156.683 60.3729 156.927 61.1607 156.927 62.1756C156.927 62.236 156.924 62.3308 156.921 62.4545H152.617C152.655 63.1301 152.833 63.6447 153.155 64.0041C153.477 64.3635 153.88 64.5418 154.36 64.5418C154.719 64.5418 155.027 64.444 155.28 64.2428C155.533 64.0415 155.734 63.7224 155.884 63.2825Z" fill="#231F20"/>
<path d="M161.237 62.2216C161.237 63.0122 161.386 63.5959 161.685 63.9754C161.987 64.3549 162.352 64.5418 162.781 64.5418C163.215 64.5418 163.586 64.3463 163.896 63.9552C164.207 63.5642 164.362 62.9547 164.362 62.1353C164.362 61.3504 164.21 60.7639 163.908 60.3729C163.606 59.9848 163.244 59.7893 162.824 59.7893C162.407 59.7893 162.036 59.9963 161.717 60.4132C161.395 60.8272 161.237 61.4309 161.237 62.2216ZM160.348 67.6152V59.1136H161.24V59.91C161.452 59.5995 161.688 59.3638 161.953 59.2085C162.217 59.0504 162.539 58.9727 162.916 58.9727C163.407 58.9727 163.842 59.1079 164.221 59.3781C164.598 59.6484 164.882 60.0308 165.072 60.5224C165.265 61.014 165.363 61.5546 165.363 62.1411C165.363 62.7678 165.256 63.3371 165.043 63.8402C164.831 64.3434 164.523 64.7286 164.12 64.996C163.715 65.2663 163.29 65.3985 162.844 65.3985C162.519 65.3985 162.226 65.3267 161.967 65.18C161.708 65.0334 161.496 64.8465 161.329 64.6251V67.6152" fill="#231F20"/>
<path d="M168.772 59.1136H169.75V61.6724H172.464V59.1136H173.442V65.2605H172.464V62.532H169.75V65.2605H168.772" fill="#231F20"/>
<path d="M177.881 61.5948H181.104C181.06 61.0802 180.937 60.692 180.736 60.4333C180.422 60.0308 180.02 59.8295 179.522 59.8295C179.074 59.8295 178.694 59.9905 178.39 60.3125C178.082 60.6317 177.912 61.06 177.881 61.5948ZM181.092 63.2825L182.104 63.4147C181.946 64.0415 181.65 64.5331 181.219 64.8781C180.787 65.226 180.235 65.4014 179.565 65.4014C178.723 65.4014 178.053 65.1225 177.559 64.5676C177.061 64.0156 176.814 63.2394 176.814 62.2388C176.814 61.2038 177.067 60.4017 177.564 59.8295C178.065 59.2603 178.714 58.9727 179.511 58.9727C180.284 58.9727 180.914 59.2545 181.403 59.8123C181.891 60.3729 182.136 61.1607 182.136 62.1756C182.136 62.236 182.136 62.3308 182.133 62.4545H177.826C177.863 63.1301 178.042 63.6447 178.364 64.0041C178.686 64.3635 179.091 64.5418 179.571 64.5418C179.931 64.5418 180.235 64.444 180.491 64.2428C180.744 64.0415 180.945 63.7224 181.092 63.2825Z" fill="#231F20"/>
<path d="M184.663 59.1136H189.355V59.9761H187.495V65.2605H186.523V59.9761H184.663" fill="#231F20"/>
<path d="M197.454 62.7132H200.461V61.6667H197.454V62.7132Z" fill="#231F20"/>
<path d="M209.115 59.1136H210.636L212.154 64.0328L213.839 59.1136H215.248V65.2605H214.268V60.3125L212.563 65.2605H211.686L210.073 60.0738V65.2605H209.115" fill="#231F20"/>
<path d="M222.654 62.1756C222.301 62.3308 221.766 62.4602 221.056 62.5695C220.653 62.6298 220.371 62.6988 220.202 62.7765C220.035 62.8541 219.908 62.9662 219.819 63.1157C219.727 63.2652 219.681 63.4291 219.681 63.6102C219.681 63.8891 219.779 64.1191 219.977 64.306C220.176 64.49 220.463 64.582 220.843 64.582C221.22 64.582 221.556 64.4958 221.849 64.3204C222.142 64.145 222.358 63.9035 222.496 63.5987C222.602 63.363 222.654 63.018 222.654 62.558V62.1756ZM222.735 64.5015C222.372 64.8293 222.025 65.0621 221.688 65.1973C221.355 65.3324 220.995 65.4014 220.61 65.4014C219.977 65.4014 219.489 65.2347 219.149 64.904C218.807 64.5763 218.638 64.1536 218.638 63.639C218.638 63.34 218.701 63.064 218.83 62.8138C218.96 62.5666 219.126 62.3653 219.336 62.2158C219.543 62.0663 219.779 61.9513 220.041 61.8737C220.23 61.8191 220.524 61.7673 220.909 61.7184C221.7 61.6178 222.28 61.4971 222.654 61.3591C222.657 61.2153 222.66 61.1262 222.66 61.0859C222.66 60.6604 222.568 60.3643 222.381 60.1889C222.134 59.9531 221.76 59.8381 221.268 59.8381C220.808 59.8381 220.469 59.9215 220.248 60.094C220.032 60.2665 219.868 60.5684 219.762 61.0054L218.807 60.8674C218.894 60.4304 219.034 60.0768 219.236 59.8094C219.434 59.542 219.724 59.335 220.098 59.1913C220.475 59.0446 220.912 58.9727 221.412 58.9727C221.904 58.9727 222.303 59.036 222.611 59.1596C222.919 59.2833 223.146 59.4385 223.29 59.6254C223.436 59.8123 223.537 60.048 223.594 60.3355C223.626 60.5109 223.643 60.8329 223.643 61.2958V62.6845C223.643 63.6534 223.663 64.2658 223.706 64.5216C223.747 64.7804 223.83 65.0248 223.954 65.2605H222.93C222.83 65.0449 222.763 64.7919 222.735 64.5015Z" fill="#231F20"/>
<path d="M227.392 59.1136H230.713V59.9761H228.37V65.2605H227.392" fill="#231F20"/>
<path d="M237.116 62.1756C236.759 62.3308 236.227 62.4602 235.517 62.5695C235.115 62.6298 234.83 62.6988 234.663 62.7765C234.497 62.8541 234.367 62.9662 234.278 63.1157C234.186 63.2652 234.14 63.4291 234.14 63.6102C234.14 63.8891 234.241 64.1191 234.436 64.306C234.635 64.49 234.925 64.582 235.304 64.582C235.681 64.582 236.018 64.4958 236.311 64.3204C236.604 64.145 236.82 63.9035 236.958 63.5987C237.061 63.363 237.116 63.018 237.116 62.558V62.1756ZM237.196 64.5015C236.834 64.8293 236.483 65.0621 236.15 65.1973C235.813 65.3324 235.454 65.4014 235.072 65.4014C234.436 65.4014 233.947 65.2347 233.608 64.904C233.269 64.5763 233.096 64.1536 233.096 63.639C233.096 63.34 233.163 63.064 233.289 62.8138C233.418 62.5666 233.588 62.3653 233.795 62.2158C234.005 62.0663 234.238 61.9513 234.499 61.8737C234.692 61.8191 234.982 61.7673 235.371 61.7184C236.158 61.6178 236.742 61.4971 237.116 61.3591C237.119 61.2153 237.119 61.1262 237.119 61.0859C237.119 60.6604 237.027 60.3643 236.843 60.1889C236.593 59.9531 236.222 59.8381 235.727 59.8381C235.267 59.8381 234.928 59.9215 234.709 60.094C234.491 60.2665 234.327 60.5684 234.223 61.0054L233.266 60.8674C233.352 60.4304 233.496 60.0768 233.694 59.8094C233.896 59.542 234.183 59.335 234.56 59.1913C234.936 59.0446 235.373 58.9727 235.871 58.9727C236.363 58.9727 236.762 59.036 237.07 59.1596C237.38 59.2833 237.605 59.4385 237.751 59.6254C237.895 59.8123 237.996 60.048 238.056 60.3355C238.088 60.5109 238.105 60.8329 238.105 61.2958V62.6845C238.105 63.6534 238.125 64.2658 238.165 64.5216C238.208 64.7804 238.292 65.0248 238.412 65.2605H237.392C237.291 65.0449 237.225 64.7919 237.196 64.5015Z" fill="#231F20"/>
<path d="M242.998 62.4832V61.6667C243.412 61.6609 243.694 61.6466 243.843 61.6121C243.996 61.5833 244.136 61.4884 244.272 61.3361C244.404 61.1808 244.473 60.9882 244.473 60.7582C244.473 60.4735 244.384 60.2493 244.208 60.0825C244.033 59.9158 243.806 59.8295 243.527 59.8295C242.975 59.8295 242.59 60.1774 242.368 60.8674L241.44 60.7035C241.73 59.5506 242.429 58.9727 243.538 58.9727C244.154 58.9727 244.637 59.1539 244.985 59.5133C245.335 59.8726 245.511 60.2982 245.511 60.7984C245.511 61.2987 245.284 61.6983 244.827 61.9973C245.117 62.1612 245.333 62.374 245.479 62.6298C245.623 62.8857 245.695 63.1905 245.695 63.5412C245.695 64.0932 245.508 64.5418 245.131 64.8839C244.752 65.2289 244.226 65.4014 243.547 65.4014C242.233 65.4014 241.468 64.7775 241.259 63.5297L242.179 63.3227C242.262 63.7166 242.432 64.0214 242.687 64.237C242.943 64.4526 243.234 64.5619 243.564 64.5619C243.895 64.5619 244.168 64.4613 244.389 64.2629C244.608 64.0645 244.717 63.8086 244.717 63.501C244.717 63.2624 244.648 63.0525 244.51 62.8771C244.372 62.6988 244.226 62.5867 244.07 62.5436C243.915 62.4976 243.63 62.4775 243.222 62.4775C243.191 62.4775 243.116 62.4775 242.998 62.4832Z" fill="#231F20"/>
<path d="M249.053 59.1136H250.031V63.7999L252.745 59.1136H253.797V65.2605H252.819V60.6L250.108 65.2605H249.053" fill="#231F20"/>
<path d="M257.503 59.1136H258.483V61.6724H261.195V59.1136H262.172V65.2605H261.195V62.532H258.483V65.2605H257.503" fill="#231F20"/>
</svg>
